<svg xmlns="http://www.w3.org/2000/svg" xmlns:xlink="http://www.w3.org/1999/xlink" viewBox="0,0,256,256" width="24px" height="24px" fill-rule="nonzero"><g fill="#20c997" fill-rule="nonzero" stroke="none" stroke-width="1" stroke-linecap="butt" stroke-linejoin="miter" stroke-miterlimit="10" stroke-dasharray="" stroke-dashoffset="0" font-family="none" font-weight="none" font-size="none" text-anchor="none" style="mix-blend-mode: normal"><g transform="scale(10.66667,10.66667)"><path d="M12,2c-5.514,0 -10,4.486 -10,10c0,5.514 4.486,10 10,10c5.514,0 10,-4.486 10,-10c0,-5.514 -4.486,-10 -10,-10zM17.519,9.792l-5.989,5.988c-0.146,0.147 -0.338,0.22 -0.53,0.22c-0.192,0 -0.384,-0.073 -0.53,-0.22l-3,-3c-0.293,-0.293 -0.293,-0.768 0,-1.061c0.293,-0.293 0.768,-0.293 1.061,0l2.47,2.47l5.458,-5.458c0.293,-0.293 0.768,-0.293 1.061,0c0.293,0.293 0.292,0.768 -0.001,1.061z"></path></g></g></svg>